<?xml version="1.0" encoding="UTF-8"?>
<svg id="Layer_2" data-name="Layer 2" xmlns="http://www.w3.org/2000/svg" viewBox="0 0 77.02 135.52">
  <defs>
    <style>
      .cls-1 {
        fill: #0b4d31;
      }

      .cls-1, .cls-2 {
        stroke-width: 0px;
      }

      .cls-2 {
        fill: #f18c0e;
      }
    </style>
  </defs>
  <g id="Layer_1-2" data-name="Layer 1">
    <g>
      <g>
        <path class="cls-1" d="M62.51,27.62c-6.61-26.95-41.24-27.17-48.01,0-.8-3.15-.7-6.58.17-9.87.87-3.3,2.54-6.45,4.83-9.13C26.57.22,39.09-2.33,49.02,2.25c9.5,4.15,16.02,15.18,13.49,25.37h0Z"/>
        <g>
          <path class="cls-1" d="M45.71,17.01c-3.75.5-1.09-4.87-6.01-4.88-.73,0-1.32.06-1.79.19-.39-.18-.78-.4-1.14-.68-2.18-1.73-1.77-.3-3.68-.23-1.91.07-.71,1.21-1.81,1.8-1.1.59-1.3,1.11-1.3,2.4,0,2.4,1.21,4.26,3.94,3.43.28.25.67.39,1.16.33,2.44-.29,0,1.31,1.46,2.18,1.46.87-.31,3.23,1.06,5.05,1.37,1.82-.05,2.79.99,2.79,1.45,0,2.74-1.03,3.55-2.62.87-.5,1.74-2.05,1.81-4.41.08-2.92,5.5-5.84,1.75-5.34Z"/>
          <path class="cls-1" d="M45.75,23.08c-.56,0-.32,1.23-1.02,1.98-.7.75-.46,2.04.11,2.04s1.39-.91,1.39-2.04.08-1.98-.48-1.98Z"/>
        </g>
        <g>
          <circle class="cls-1" cx="25.73" cy="36.97" r="4.79"/>
          <circle class="cls-1" cx="51.29" cy="36.97" r="4.79"/>
          <g>
            <circle class="cls-1" cx="38.51" cy="36.97" r="5.71"/>
            <circle class="cls-1" cx="14.5" cy="36.97" r="4.14"/>
          </g>
          <circle class="cls-1" cx="62.51" cy="36.97" r="4.14"/>
        </g>
      </g>
      <path class="cls-1" d="M54.62,46.74c-2.36-1.01-4.81-1.82-7.35-2.44-2.18,6.19-3.58,12.51-4.56,18.85-3.22,23.36-2.12,44.57,7.26,66.77.82-.25,1.63-.53,2.43-.82-.65-1.84-1.24-3.7-1.76-5.58-6.51-24.26-5.99-52.44,3.97-76.78Z"/>
      <path class="cls-2" d="M53.99,98.01l2.1-.53c-.73-4.22-.61-8.58-.12-12.86,1.42-10.38,4.78-21.55,10.86-30.28-1.91-1.63-3.94-3.13-6.09-4.45-3.71,6.47-5.76,13.55-7.23,20.84-1.56,9-2.15,18.39.48,27.27Z"/>
      <path class="cls-2" d="M61.75,90.26s2.16-.08,2.16-.08c.89-8.14,6.49-18.22,13.1-23.62-1.31-2.26-2.8-4.4-4.45-6.4-7.09,7.4-11.82,20.35-10.81,30.1Z"/>
      <path class="cls-1" d="M22.39,46.74c2.36-1.01,4.81-1.82,7.35-2.44,2.18,6.19,3.58,12.51,4.56,18.85,3.22,23.36,2.12,44.57-7.26,66.77-.82-.25-1.63-.53-2.43-.82.65-1.84,1.24-3.7,1.76-5.58,6.51-24.26,5.99-52.44-3.97-76.78Z"/>
      <path class="cls-2" d="M23.03,98.01l-2.1-.53c.73-4.22.61-8.58.12-12.86-1.42-10.38-4.78-21.55-10.86-30.28,1.91-1.63,3.94-3.13,6.09-4.45,3.71,6.47,5.76,13.55,7.23,20.84,1.56,9,2.15,18.39-.48,27.27Z"/>
      <path class="cls-2" d="M15.26,90.26s-2.16-.08-2.16-.08c-.89-8.14-6.49-18.22-13.1-23.62,1.31-2.26,2.8-4.4,4.45-6.4,7.09,7.4,11.82,20.35,10.81,30.1Z"/>
      <path class="cls-1" d="M53.82,127.54v6.4c-4.91,1.02-10.03,1.57-15.31,1.57s-10.41-.55-15.31-1.57v-6.4s13.25,4.42,30.63,0Z"/>
    </g>
  </g>
</svg>