<?xml version="1.0" encoding="UTF-8"?>
<svg width="500px" height="500px" viewBox="0 0 500 500" version="1.1" xmlns="http://www.w3.org/2000/svg" xmlns:xlink="http://www.w3.org/1999/xlink">
    <!-- Generator: Sketch 51.2 (57519) - http://www.bohemiancoding.com/sketch -->
    <title>FA Cup</title>
    <desc>Created with Sketch.</desc>
    <defs>
        <polygon id="path-1" points="0 0.35752796 61.8621306 0.35752796 61.8621306 122.57875 0 122.57875"></polygon>
        <linearGradient x1="50%" y1="96.0391878%" x2="41.2665005%" y2="3.77048399%" id="linearGradient-3">
            <stop stop-color="#8C8D91" offset="0%"></stop>
            <stop stop-color="#737478" offset="100%"></stop>
        </linearGradient>
        <polygon id="path-4" points="8.44712373e-05 0.357422009 61.8620105 0.357422009 61.8620105 122.578342 8.44712373e-05 122.578342"></polygon>
        <linearGradient x1="41.2665005%" y1="20.3565358%" x2="41.2665005%" y2="86.9128794%" id="linearGradient-6">
            <stop stop-color="#AFB0B3" offset="0%"></stop>
            <stop stop-color="#7D7E7F" offset="100%"></stop>
        </linearGradient>
        <linearGradient x1="50%" y1="208.200743%" x2="41.2665005%" y2="3.77048399%" id="linearGradient-7">
            <stop stop-color="#BEBFC1" offset="0%"></stop>
            <stop stop-color="#D7D7D7" offset="10.6816799%"></stop>
            <stop stop-color="#9B9C9F" offset="20.009878%"></stop>
            <stop stop-color="#B4B4B4" offset="25.2077866%"></stop>
            <stop stop-color="#818181" offset="32.9375493%"></stop>
            <stop stop-color="#6F6F6F" offset="38.8276734%"></stop>
            <stop stop-color="#4E4E4E" offset="47.113437%"></stop>
            <stop stop-color="#B8B9BC" offset="60.5160492%"></stop>
            <stop stop-color="#B8B9BC" offset="63.2270038%"></stop>
            <stop stop-color="#6B6C70" offset="100%"></stop>
        </linearGradient>
    </defs>
    <g id="FA-Cup" stroke="none" stroke-width="1" fill="none" fill-rule="evenodd">
        <g id="Group-15" transform="translate(113.347826, 9.445652)">
            <g id="Group-3" transform="translate(0.000000, 91.514761)">
                <mask id="mask-2" fill="white">
                    <use xlink:href="#path-1"></use>
                </mask>
                <g id="Clip-2"></g>
                <path d="M53.1683102,23.4740466 L42.989987,1.72823416 C37.9240013,0.389873296 32.8184803,0.00544325719 27.9351755,0.690613255 C18.0056527,2.08136547 9.62823566,7.89408373 4.34207866,17.059168 C-2.1205976,28.2681954 -1.34761217,42.7778778 6.51448129,57.9162564 C13.2968491,70.9753108 24.8282376,83.6043479 38.982596,93.4756948 C41.9988752,95.5801941 42.3403793,97.8350634 42.0956688,99.3591754 C41.8196025,101.085368 40.7139743,102.479523 39.2804749,102.91022 C37.1264767,103.554566 33.0072959,102.284246 27.9317673,96.7695458 C24.2761051,92.7939269 18.079952,92.5340113 14.0977819,96.1830349 C10.1183384,99.8368213 9.8545418,106.021042 13.5142938,109.993259 C22.9257664,120.220459 31.9180272,122.57875 38.2096106,122.57875 C41.0806994,122.57875 43.389431,122.086135 44.9169974,121.627541 C48.1854852,120.647754 51.1431429,118.944015 53.6427351,116.716362 C53.6427351,116.716362 64.0323682,108.010552 61.4496153,94.7249223 C61.4496153,94.7249223 62.1121742,88.2474463 42.9865788,71.8904585 C26.534395,57.8189582 17.4814677,45.9444927 20.063539,28.494771 C20.063539,28.494771 23.1759301,11.9071251 53.1683102,23.4740466" id="Fill-1" fill="url(#linearGradient-3)" mask="url(#mask-2)"></path>
            </g>
            <g id="Group-6" transform="translate(202.448566, 91.514761)">
                <mask id="mask-5" fill="white">
                    <use xlink:href="#path-4"></use>
                </mask>
                <g id="Clip-5"></g>
                <path d="M41.798676,28.4950431 C44.3814289,45.9447648 35.32782,57.8192304 18.8756363,71.8900502 C-0.249959222,88.2470381 0.41259972,94.7245141 0.41259972,94.7245141 C-2.17015319,108.010144 8.21947993,116.715954 8.21947993,116.715954 C10.7190722,118.944287 13.6767298,120.648026 16.9458992,121.627132 C18.4727841,122.085727 20.7815157,122.578342 23.6526044,122.578342 C29.9441878,122.578342 38.9364487,120.220731 48.3479212,109.993531 C52.0076732,106.020634 51.7438766,99.8370934 47.7644331,96.183307 C43.782263,92.5342835 37.5861099,92.794199 33.9304478,96.769818 C28.8549191,102.284518 24.7357383,103.554158 22.5817401,102.910493 C21.1482407,102.479795 20.0426125,101.085641 19.7665463,99.3594476 C19.5218357,97.8346552 19.8633399,95.5797859 22.879619,93.4752866 C37.0339775,83.6046201 48.565366,70.975583 55.3477337,57.9158482 C63.2098272,42.7774696 63.9828126,28.2684675 57.5201364,17.0587598 C52.234661,7.89367549 43.8565623,2.08163763 33.9270395,0.690205011 C29.0444164,0.00571542004 23.9382137,0.389465052 18.872228,1.72782591 L8.69390485,23.4743188 C38.686285,11.9073973 41.798676,28.4950431 41.798676,28.4950431" id="Fill-4" fill="url(#linearGradient-3)" mask="url(#mask-5)"></path>
            </g>
            <path d="M83.8423353,61.9170505 C83.8423353,61.9170505 84.0082765,61.9623896 84.309555,62.0341766 C84.8141795,61.9623896 85.3351261,61.9170505 85.8825961,61.9170505 L83.8423353,61.9170505 Z" id="Fill-7" fill="#000000"></path>
            <path d="M95.7711228,426.955485 L80.9167149,415.442316 C77.1506263,418.199326 74.0184675,420.920274 71.7029194,423.60448 C71.3252881,424.041982 70.9694694,424.478123 70.6354634,424.914264 C61.7740783,436.481186 103.354423,481.388057 103.354423,481.388057 C103.354423,481.388057 105.509785,468.150056 122.023998,449.978422 C115.696288,442.910353 107.192085,435.070702 95.7711228,426.955485" id="Fill-9" fill="url(#linearGradient-6)"></path>
            <path d="M141.100515,38.8134175 C147.957183,35.5175253 152.688481,28.5168161 152.688481,20.4124866 C152.688481,9.13882057 143.532625,0.000272162859 132.23913,0.000272162859 C120.945636,0.000272162859 111.78978,9.13882057 111.78978,20.4124866 C111.78978,28.5168161 116.521078,35.5175253 123.377745,38.8134175 L123.377745,46.6081618 L141.100515,46.6081618 L141.100515,38.8134175 Z" id="Fill-11" fill="#6B6C70"></path>
            <path d="M132.23913,178.94708 C120.945636,178.94708 111.78978,169.807851 111.78978,158.534866 C111.78978,147.26188 120.945636,138.122651 132.23913,138.122651 C143.532625,138.122651 152.688481,147.26188 152.688481,158.534866 C152.688481,169.807851 143.532625,178.94708 132.23913,178.94708 M234.911909,290.874056 C234.911909,290.874056 217.889188,272.580629 199.88558,260.961997 C224.745174,231.742592 197.336228,203.781941 197.336228,203.781941 C191.883068,192.895426 189.156488,181.328505 189.156488,181.328505 C178.931813,141.86489 210.287483,90.8343543 210.287483,90.8343543 C199.381163,90.8343543 193.928003,79.2674328 193.928003,79.2674328 C192.564713,58.8552183 177.568523,62.9376612 177.568523,62.9376612 C146.894498,62.9376612 151.666013,46.6078896 151.666013,46.6078896 L141.100515,46.6078896 L123.377745,46.6078896 L112.812248,46.6078896 C112.812248,66.1172038 88.0317255,62.6341996 84.3106254,62.001421 C75.3824392,62.9165686 72.9360152,71.4427506 72.9360152,71.4427506 C70.8910802,87.7725221 54.5316002,91.1745578 54.5316002,91.1745578 C101.224283,175.885248 61.6888727,211.946827 61.6888727,211.946827 C41.9211676,235.761077 55.5540677,259.575327 55.5540677,259.575327 C37.1496526,271.142249 19.4268826,290.193649 19.4268826,290.193649 C1.70411251,317.409935 16.7003026,339.86337 16.7003026,339.86337 C22.1534626,354.151921 43.2844576,372.522914 43.2844576,372.522914 L86.3698749,405.916616 L101.224283,417.429785 C112.645245,425.545001 121.149448,433.384653 127.477158,440.452722 C143.431741,458.273946 145.531208,471.18195 145.531208,471.18195 C145.531208,471.18195 187.111553,426.275078 178.250168,414.708157 C177.916162,414.272016 177.560343,413.835875 177.183394,413.398373 C175.053253,410.929175 172.236696,408.43004 168.868688,405.900286 C158.911899,398.421251 144.118158,390.674135 127.860925,382.658258 C124.708998,381.104209 121.50254,379.539953 118.265408,377.966171 C117.855739,377.766811 117.442662,377.566091 117.026859,377.36401 C90.4106665,364.434914 59.9847602,344.966424 59.9847602,344.966424 C41.5803451,334.07991 38.1721201,325.234617 38.1721201,325.234617 C21.1309951,289.853445 73.2768377,270.461841 73.2768377,270.461841 L96.7935903,259.235123 C96.7935903,259.235123 77.7075303,274.204081 73.9584827,287.47202 C59.7959445,337.593532 95.7711228,352.791106 95.7711228,352.791106 C73.2768377,322.853192 121.673633,303.121384 121.673633,303.121384 L183.628347,272.200962 C193.904146,276.681443 230.903836,295.317795 216.166671,325.915024 C216.166671,325.915024 212.758446,334.760317 194.354031,345.646831 C194.354031,345.646831 186.802768,351.769135 160.186576,364.698231 L139.05558,376.265153 C155.312814,384.280349 172.043109,393.961862 181.999216,401.440217 L211.054334,373.203321 C211.054334,373.203321 232.185329,354.832328 237.638489,340.543778 C237.638489,340.543778 252.634679,318.090342 234.911909,290.874056" id="Fill-13" fill="url(#linearGradient-7)"></path>
        </g>
    </g>
</svg>