<?xml version="1.0" encoding="UTF-8"?>
<svg id="Layer_1" data-name="Layer 1" xmlns="http://www.w3.org/2000/svg" viewBox="0 0 215 215">
  <defs>
    <style>
      .cls-1 {
        stroke-width: 0px;
      }

      .cls-2 {
        isolation: isolate;
      }
    </style>
  </defs>
  <g class="cls-2">
    <path class="cls-1" d="M187.85,82.97c.4,0,.78.11,1.12.29s.65.43.91.75.47.68.62,1.09.23.85.23,1.32v6.38c0,.22-.02.44-.06.66s-.09.43-.16.63-.16.4-.26.58-.22.36-.36.51c-.13.16-.28.3-.44.42s-.32.22-.5.31-.35.15-.54.19-.38.06-.57.06l-13.55-.11.77-.64c.2-.16.37-.34.52-.55s.28-.43.39-.66.19-.49.24-.75.08-.54.08-.81v-3.43s8.65.12,8.65.12v-3c0-.47.08-.91.23-1.32s.36-.77.62-1.07.57-.55.92-.71.73-.25,1.12-.25Z"/>
    <path class="cls-1" d="M176.08,135.87c.39.13.73.34,1.02.62s.53.62.71,1,.29.81.33,1.25,0,.9-.11,1.36c-.1.37-.24.71-.42,1.02s-.4.57-.65.79-.52.39-.82.51-.6.19-.92.2c-.07,0-.14,0-.21,0s-.14-.01-.21-.02-.14-.02-.21-.04-.14-.04-.21-.06l-5.14-1.68c-.02-.11-.03-.22-.05-.33s-.03-.22-.03-.33-.02-.23-.02-.34,0-.23,0-.35c0-.49.05-.98.13-1.44s.2-.91.36-1.34.34-.84.56-1.22.47-.74.75-1.07c.01-.02.03-.03.04-.05s.03-.03.04-.05.03-.03.04-.04.03-.03.04-.04l5.01,1.66Z"/>
    <path class="cls-1" d="M175.22,125.35c.82-.01,1.63.07,2.41.25s1.52.44,2.24.78,1.39.76,2.02,1.25,1.22,1.05,1.75,1.66c.53.61,1.02,1.29,1.44,2.02s.79,1.51,1.09,2.33.53,1.69.69,2.58.24,1.82.24,2.77l-2.9.08-2.91.08c0-.49-.04-.96-.12-1.42s-.2-.9-.35-1.31-.34-.81-.55-1.18-.46-.72-.74-1.03c-.28-.31-.58-.6-.9-.84s-.66-.46-1.03-.63-.74-.3-1.14-.39-.81-.13-1.23-.12c-.4.01-.79.06-1.17.16s-.74.23-1.09.4-.68.38-1,.62-.61.51-.89.82c-.01.01-.03.03-.04.04s-.03.03-.04.04-.03.03-.04.05-.03.03-.04.05c-.28.33-.53.69-.75,1.07s-.41.79-.56,1.22-.27.88-.36,1.34-.13.95-.13,1.44c0,.12,0,.23,0,.35s.01.23.02.34.02.22.03.33.03.22.05.33c.06.36.14.7.24,1.03s.23.65.37.96.3.6.48.87.38.54.59.78c.28.31.58.6.91.84s.67.45,1.03.62.75.29,1.14.37.81.12,1.23.1.83-.08,1.23-.18.78-.26,1.14-.44.7-.42,1.03-.68.62-.56.9-.89c.27-.33.52-.69.74-1.07s.4-.79.55-1.21.27-.87.35-1.33.12-.94.12-1.43l2.91-.08,2.9-.08c0,.95-.08,1.89-.24,2.79s-.39,1.78-.69,2.62-.66,1.64-1.09,2.39-.91,1.45-1.44,2.1c-.53.64-1.11,1.23-1.74,1.75s-1.3.97-2.01,1.35-1.46.68-2.23.89-1.58.34-2.4.37-1.65-.04-2.43-.19-1.55-.41-2.27-.73c-.72-.33-1.41-.74-2.05-1.22s-1.24-1.03-1.79-1.65c-.55-.61-1.05-1.29-1.48-2.03s-.81-1.52-1.12-2.36-.55-1.71-.71-2.63-.25-1.86-.25-2.83c0-.07,0-.13,0-.2s0-.13,0-.2,0-.13,0-.2,0-.13,0-.2c.03-.6.09-1.2.18-1.78s.22-1.16.37-1.71.33-1.1.54-1.63.44-1.04.7-1.53c.12-.23.25-.47.39-.69s.28-.45.42-.66.3-.43.45-.63.32-.41.48-.6c.55-.64,1.15-1.23,1.79-1.75s1.33-.96,2.05-1.33,1.48-.65,2.26-.85,1.59-.31,2.41-.32Z"/>
    <path class="cls-1" d="M155.86,136.46c.08-.59.17-1.18.29-1.75s.25-1.14.4-1.7.32-1.11.5-1.65.39-1.07.61-1.59l7.3,2.42c-.26.49-.49,1-.7,1.53s-.39,1.07-.54,1.63-.28,1.13-.37,1.71-.16,1.18-.18,1.78l-7.29-2.38Z"/>
    <path class="cls-1" d="M175.22,109.96c1.73,0,3.42.2,5.05.58s3.19.95,4.67,1.68c1.48.73,2.89,1.62,4.2,2.66s2.52,2.21,3.63,3.51c1.1,1.29,2.1,2.71,2.98,4.24s1.63,3.15,2.24,4.87,1.09,3.51,1.41,5.38.49,3.8.49,5.78l-2.84.07-2.85.07c0-1.53-.13-3.02-.38-4.45s-.62-2.82-1.09-4.13-1.06-2.57-1.73-3.74-1.45-2.26-2.3-3.26c-.86-1-1.79-1.89-2.8-2.68s-2.09-1.47-3.22-2.02-2.34-.98-3.58-1.27c-1.25-.29-2.54-.44-3.88-.43-1.33.01-2.64.18-3.9.49-1.26.31-2.48.77-3.65,1.35s-2.28,1.29-3.32,2.12-2.02,1.77-2.91,2.81c-.38.45-.75.92-1.1,1.4s-.69.98-1,1.5-.62,1.05-.9,1.59-.54,1.11-.78,1.68c-.22.52-.42,1.05-.61,1.59s-.35,1.09-.5,1.65-.28,1.13-.4,1.7-.21,1.16-.29,1.75c-.04.27-.07.55-.09.83s-.05.56-.07.84-.03.56-.04.84-.01.57-.01.85c0,1.58.14,3.12.41,4.59s.65,2.9,1.16,4.24,1.11,2.62,1.82,3.8,1.52,2.28,2.41,3.28c.89,1,1.87,1.89,2.91,2.66s2.15,1.43,3.32,1.95,2.38.91,3.65,1.16,2.56.35,3.9.29c1.33-.06,2.63-.27,3.88-.63,1.25-.35,2.44-.84,3.58-1.46,1.14-.61,2.22-1.35,3.22-2.19s1.94-1.79,2.8-2.83c.85-1.04,1.63-2.17,2.3-3.38s1.26-2.48,1.73-3.82.84-2.74,1.09-4.19.38-2.95.38-4.48l2.85-.07,2.84-.07c0,1.98-.17,3.93-.49,5.81s-.8,3.71-1.41,5.46-1.37,3.42-2.24,4.99-1.87,3.04-2.98,4.39c-1.1,1.36-2.32,2.59-3.63,3.7s-2.72,2.07-4.2,2.88-3.05,1.46-4.67,1.93-3.32.76-5.05.84c-1.74.09-3.44-.04-5.09-.35s-3.25-.82-4.78-1.49-2.99-1.53-4.36-2.53-2.65-2.17-3.82-3.46c-1.17-1.29-2.23-2.73-3.17-4.28s-1.74-3.22-2.4-4.99-1.18-3.63-1.53-5.57-.53-3.95-.53-6.02c0-.46,0-.92.03-1.38s.05-.91.08-1.37.08-.9.14-1.35.12-.89.19-1.33c.09-.59.2-1.17.33-1.74s.26-1.14.41-1.7.32-1.11.49-1.66.37-1.09.57-1.62c.33-.85.69-1.69,1.08-2.5s.82-1.59,1.27-2.36.93-1.49,1.44-2.2,1.04-1.38,1.6-2.03c1.17-1.36,2.44-2.58,3.82-3.66s2.83-2,4.36-2.76,3.13-1.34,4.78-1.74,3.35-.61,5.09-.61Z"/>
    <path class="cls-1" d="M139.55,131.14v-7.37s12.23,4.06,12.23,4.06c-.2.53-.4,1.07-.57,1.62s-.34,1.1-.49,1.66-.29,1.13-.41,1.7-.23,1.15-.33,1.74l-10.43-3.4Z"/>
    <path class="cls-1" d="M133.3,126.61s0-.04,0-.07,0-.04,0-.07,0-.04,0-.07,0-.04,0-.07v.27Z"/>
    <path class="cls-1" d="M75.03,81.96c.47,0,.92.12,1.33.31s.78.47,1.09.81.56.74.73,1.19.27.93.27,1.44c0,.09,0,.18,0,.27s-.01.18-.03.26-.03.17-.04.26-.04.17-.06.25l-.37-.63c-.16-.28-.35-.53-.57-.74s-.45-.4-.7-.55-.52-.26-.79-.34-.56-.12-.84-.13c-.16,0-.31,0-.47.03s-.31.05-.47.1-.31.1-.45.17-.29.15-.44.25c-.35.23-.65.53-.89.86s-.42.71-.54,1.1-.18.81-.17,1.23.08.84.22,1.24l-1.59-.02-28.65-.36c-1.27-.02-2.54.1-3.77.35-1.24.25-2.45.62-3.61,1.11s-2.29,1.11-3.35,1.84-2.06,1.57-2.97,2.52l-6.44,6.68c-.18.19-.37.35-.58.49s-.42.26-.64.35-.45.16-.69.21-.47.07-.71.07-.47-.02-.71-.07-.46-.12-.69-.21-.44-.21-.65-.35-.4-.31-.58-.5c-.37-.38-.64-.82-.82-1.28s-.27-.96-.27-1.46.09-.99.27-1.46.46-.9.82-1.27l6.49-6.67c1.27-1.31,2.65-2.46,4.11-3.46,1.46-1,3.01-1.84,4.62-2.51,1.61-.67,3.27-1.17,4.98-1.5,1.7-.33,3.44-.48,5.19-.45l32.11.57,1.32.02Z"/>
    <path class="cls-1" d="M82.14,63.97c-.2.47-.29.96-.31,1.45s.06.97.22,1.41.38.87.68,1.22.67.66,1.09.88l2.95,1.52-7.98,17.11-.48-.82c.02-.08.04-.16.06-.25s.03-.17.04-.26.02-.17.03-.26,0-.18,0-.27c0-.51-.1-1-.27-1.44s-.42-.85-.73-1.19-.68-.62-1.09-.81-.86-.31-1.33-.31l-1.32-.02,8.43-17.96Z"/>
    <path class="cls-1" d="M85.22,61.95c.12,0,.23.01.35.03s.23.04.35.07.23.07.34.11.23.09.34.15l3.2,1.67,45.92,23.97c.23.12.46.22.7.31s.48.17.72.23.49.11.73.14.49.05.74.05c.47,0,.93-.04,1.38-.14s.89-.24,1.31-.43.82-.43,1.2-.71.74-.61,1.07-.98l6.81-7.65c.14-.16.3-.3.46-.42s.34-.23.53-.31.38-.15.57-.19.4-.06.6-.06l20.82.46c.19,0,.39.03.58.08s.37.12.55.21.35.2.51.33.31.27.45.43c.14.16.26.34.36.53s.2.39.27.6.13.42.17.64.06.44.06.67v7.44s0,3.43,0,3.43c0,.28-.03.55-.08.81s-.14.52-.24.75-.24.46-.39.66-.33.39-.52.55l-.77.64-16.42,13.54c-.13.11-.26.2-.4.28s-.28.15-.43.21-.3.1-.46.13-.31.04-.47.04l-16.57.05v13.46s0,7.37,0,7.37v.6c0,.6-.05,1.19-.16,1.77s-.26,1.13-.45,1.66-.44,1.04-.72,1.51-.6.92-.95,1.32c-.35.41-.73.78-1.15,1.1s-.86.61-1.33.85-.96.42-1.47.55-1.03.21-1.57.22l-25.1.66c-.7.02-1.38-.06-2.04-.23s-1.3-.44-1.89-.78-1.15-.78-1.65-1.28-.95-1.08-1.33-1.73l-24.54-42.11-3.05-5.24c-.03-.05-.06-.11-.09-.16s-.06-.11-.08-.17-.05-.11-.07-.17-.04-.11-.06-.17c-.14-.41-.22-.83-.22-1.24s.05-.83.17-1.23.3-.77.54-1.1.54-.63.89-.86c.14-.09.29-.18.44-.25s.3-.13.45-.17.31-.08.47-.1.31-.03.47-.03c.28,0,.57.05.84.13s.54.19.79.34.49.33.7.55.4.47.57.74l.37.63.48.82,26.52,45.78c.07.13.16.24.26.34s.21.18.32.25.24.12.37.15.26.05.4.05l25.1-.52c.11,0,.21-.02.31-.04s.19-.06.28-.1.18-.1.26-.16.16-.14.23-.22c.07-.08.13-.17.19-.26s.1-.19.14-.29.07-.21.09-.32.03-.23.03-.35v-5.25s0-19.83,0-19.83c0-.23.02-.47.06-.7s.1-.45.18-.66.18-.42.29-.61.24-.37.39-.54c.15-.17.31-.31.48-.44s.35-.24.54-.32.39-.15.59-.2.4-.07.61-.07l18.71.04,15.26-12.48v-5.7s-16.6-.28-16.6-.28l-5.88,6.64c-.61.69-1.28,1.31-1.99,1.84s-1.47.99-2.26,1.35-1.62.65-2.46.83-1.72.28-2.6.27c-.47,0-.93-.04-1.4-.1s-.93-.15-1.38-.26-.91-.26-1.36-.42-.89-.36-1.32-.58l-46.38-23.93-2.95-1.52c-.43-.22-.79-.52-1.09-.88s-.53-.77-.68-1.22-.23-.92-.22-1.4.1-.96.3-1.42c.18-.36.39-.67.62-.94s.48-.48.75-.65.55-.3.84-.38.59-.11.89-.1Z"/>
    <path class="cls-1" d="M49.25,110.32c.91,0,1.8.04,2.68.12s1.75.2,2.61.36,1.7.36,2.53.59,1.64.5,2.44.81c.56.21,1.1.44,1.64.69s1.07.51,1.59.78,1.03.57,1.53.88.99.63,1.48.97c.42.3.84.6,1.25.92s.81.65,1.2.99.77.69,1.15,1.05.74.73,1.09,1.11c1.33,1.42,2.53,2.98,3.59,4.65,1.05,1.67,1.96,3.46,2.7,5.34s1.31,3.85,1.7,5.9.59,4.17.59,6.34l-3.42.09-3.43.09c0-1.68-.16-3.31-.46-4.89s-.74-3.09-1.31-4.53-1.27-2.82-2.09-4.1-1.75-2.48-2.78-3.58c-.23-.24-.46-.47-.69-.7s-.48-.45-.72-.67-.49-.43-.75-.64-.51-.41-.77-.61c-.47-.35-.96-.69-1.46-1s-1.01-.61-1.53-.89-1.06-.53-1.61-.76-1.11-.44-1.67-.63c-.55-.18-1.12-.35-1.69-.49s-1.15-.26-1.74-.35-1.19-.16-1.8-.21-1.22-.07-1.84-.06c-1.61.02-3.19.2-4.71.55s-3,.85-4.41,1.49-2.76,1.43-4.02,2.34c-1.26.91-2.44,1.95-3.52,3.09-1.08,1.15-2.06,2.41-2.92,3.76-.86,1.35-1.6,2.79-2.21,4.3-.61,1.51-1.08,3.1-1.4,4.74s-.49,3.34-.49,5.08.17,3.43.49,5.06.79,3.19,1.4,4.67,1.35,2.88,2.21,4.18,1.84,2.51,2.92,3.6c1.08,1.09,2.26,2.07,3.52,2.91s2.61,1.56,4.02,2.13c1.41.57,2.89.99,4.41,1.26s3.1.37,4.71.3c1.61-.07,3.18-.31,4.68-.71s2.95-.94,4.33-1.62c1.37-.68,2.67-1.49,3.89-2.42s2.35-1.98,3.38-3.12c1.03-1.15,1.96-2.39,2.78-3.72s1.51-2.73,2.09-4.21,1.01-3.01,1.31-4.6.46-3.24.46-4.92l3.43-.09,3.42-.09c0,2.18-.2,4.31-.59,6.38s-.96,4.08-1.7,5.99c-.74,1.92-1.65,3.76-2.7,5.48-1.06,1.73-2.26,3.35-3.59,4.84-1.33,1.49-2.8,2.86-4.38,4.08-1.58,1.22-3.28,2.29-5.06,3.18-1.79.9-3.68,1.62-5.64,2.14-1.97.53-4.01.85-6.1.95-2.1.1-4.16-.02-6.15-.36s-3.94-.88-5.78-1.62-3.62-1.67-5.28-2.76-3.21-2.37-4.62-3.79c-1.42-1.42-2.71-2.99-3.84-4.7s-2.11-3.54-2.92-5.48-1.43-4-1.85-6.13-.65-4.35-.65-6.63.22-4.5.65-6.65,1.05-4.24,1.85-6.22,1.78-3.87,2.92-5.63,2.42-3.4,3.84-4.9c1.41-1.49,2.96-2.84,4.62-4.03,1.66-1.18,3.42-2.2,5.28-3.04s3.78-1.48,5.78-1.92,4.05-.67,6.15-.68Z"/>
    <path class="cls-1" d="M71.84,89.33c.02.06.04.11.06.17s.05.11.07.17.05.11.08.17.06.11.09.16l3.05,5.24-9.46,20.27c-.48-.34-.97-.66-1.48-.97s-1.01-.6-1.53-.88-1.05-.54-1.59-.78-1.09-.47-1.64-.69l10.74-22.88,1.59.02Z"/>
    <path class="cls-1" d="M52.3,127.54l4.02-8.56c.57.19,1.13.4,1.67.63s1.08.49,1.61.76,1.04.57,1.53.89.98.65,1.46,1l-3.98,8.52c-.44-.4-.91-.77-1.4-1.11s-1-.65-1.53-.92-1.08-.52-1.65-.72-1.15-.37-1.75-.5Z"/>
    <path class="cls-1" d="M49.25,134.79c.51,0,1.01.04,1.49.13s.94.24,1.37.42.85.42,1.24.69.75.58,1.08.93c.08.08.15.16.22.25s.14.17.21.26.14.17.2.26.13.18.19.27l-2.83,6.06c-.16.33-.35.63-.58.89s-.48.49-.76.67-.57.33-.88.43-.63.16-.96.17c-.13,0-.27,0-.4-.01s-.27-.03-.4-.06-.27-.07-.4-.11-.26-.1-.39-.17c-.44-.22-.82-.53-1.12-.89s-.53-.79-.67-1.24-.2-.94-.17-1.43.15-.99.37-1.46l2.82-6.01s.06,0,.09,0,.06,0,.09,0,.06,0,.09,0,.06,0,.09,0Z"/>
    <path class="cls-1" d="M49.25,127.24c.26,0,.52,0,.78.01s.52.03.77.05.51.06.76.1.5.09.74.14c.6.13,1.18.3,1.75.5s1.12.44,1.65.72,1.04.58,1.53.92.95.71,1.4,1.11c.07.06.14.12.2.19s.13.13.2.19.13.13.19.19.13.13.19.2c.64.67,1.23,1.42,1.74,2.22s.95,1.66,1.31,2.56.64,1.85.83,2.83.29,2,.29,3.05l-3.49.09-3.51.09c0-.41-.03-.82-.09-1.21s-.14-.77-.26-1.14-.25-.72-.41-1.07-.35-.67-.55-.98c-.06-.09-.13-.18-.19-.27s-.13-.18-.2-.26-.14-.17-.21-.26-.15-.17-.22-.25c-.33-.35-.69-.66-1.08-.93s-.8-.5-1.24-.69-.9-.33-1.37-.42-.97-.14-1.49-.13c-.03,0-.06,0-.09,0s-.06,0-.09,0-.06,0-.09,0-.06,0-.09,0c-.47.04-.93.12-1.38.24s-.87.29-1.28.49-.8.45-1.17.72-.71.59-1.03.93c-.34.37-.64.76-.91,1.18s-.5.87-.68,1.34-.33.97-.43,1.48-.15,1.04-.15,1.58.05,1.07.15,1.58.24,1,.43,1.46.42.9.68,1.31.57.79.91,1.14c.34.35.71.65,1.1.92s.81.5,1.25.68.9.32,1.38.41.97.13,1.48.11,1.01-.09,1.49-.2.94-.28,1.37-.49.85-.46,1.24-.75.75-.62,1.08-.98c.33-.36.63-.76.89-1.18s.49-.87.67-1.34.33-.96.42-1.47.15-1.03.15-1.57l3.51-.09,3.49-.09c0,1.05-.1,2.07-.29,3.07s-.47,1.96-.83,2.88-.8,1.8-1.31,2.63-1.09,1.6-1.74,2.31c-.64.71-1.35,1.36-2.1,1.93s-1.57,1.08-2.43,1.49-1.76.75-2.69.99c-.94.24-1.9.38-2.9.42-1.01.04-2-.03-2.95-.2s-1.87-.44-2.75-.8c-.88-.36-1.71-.81-2.48-1.33s-1.5-1.13-2.16-1.81c-.66-.67-1.26-1.42-1.79-2.23s-.98-1.67-1.36-2.59-.66-1.88-.86-2.89-.3-2.05-.3-3.11.1-2.11.3-3.12.49-1.99.86-2.93.83-1.83,1.36-2.66,1.13-1.61,1.79-2.32c.66-.71,1.39-1.36,2.17-1.92s1.61-1.06,2.48-1.46,1.79-.72,2.74-.94c.95-.22,1.92-.34,2.92-.36Z"/>
  </g>
  <path class="cls-1" d="M107.24,40.69c.45.02.88.14,1.27.35s.74.49,1.04.83.53.74.7,1.18.26.92.26,1.41-.09.97-.26,1.39-.4.8-.7,1.12-.65.56-1.04.73-.82.25-1.27.23l-9.75-.43-7.69,16.49-3.2-1.67c-.11-.06-.22-.11-.34-.15s-.23-.08-.34-.11-.23-.05-.35-.07-.23-.03-.35-.03c-.3,0-.6.02-.89.1s-.57.19-.83.35-.5.35-.71.58-.4.5-.55.8l10.23-21.79c.14-.3.32-.57.53-.81s.45-.44.7-.6.54-.29.83-.36.6-.11.92-.1l11.79.58Z"/>
</svg>